<svg xmlns="http://www.w3.org/2000/svg" viewBox="0 0 60 42" role="img" aria-labelledby="title">
  <title>Bandeira do Brasil</title>
  <rect width="60" height="42" rx="4" fill="#009c3b"/>
  <polygon points="30,3 55,21 30,39 5,21" fill="#ffdf00"/>
  <circle cx="30" cy="21" r="10.5" fill="#002776"/>
  <path d="M20 16.5c6.3-1.4 14.1-.5 21.2 2.8" fill="none" stroke="#ffffff" stroke-width="2.6"/>
  <rect x="19.2" y="15.3" width="23.2" height="3.6" rx="1.8" fill="#ffffff" transform="rotate(8 30.8 17.1)"/>
  <g fill="#009c3b" font-family="Arial, sans-serif" font-size="2.6" font-weight="700">
    <text x="21.2" y="17.7" transform="rotate(8 21.2 17.7)">ORDEM E PROGRESSO</text>
  </g>
  <g fill="#ffffff">
    <circle cx="24" cy="18.2" r="0.55"/>
    <circle cx="27.2" cy="15.7" r="0.5"/>
    <circle cx="31.4" cy="14.7" r="0.55"/>
    <circle cx="35.8" cy="16" r="0.48"/>
    <circle cx="39.7" cy="18.8" r="0.52"/>
    <circle cx="25.5" cy="22.4" r="0.52"/>
    <circle cx="29.2" cy="24.6" r="0.45"/>
    <circle cx="33.8" cy="24" r="0.5"/>
    <circle cx="37.6" cy="22.1" r="0.45"/>
    <circle cx="22.3" cy="21.1" r="0.4"/>
    <circle cx="41.5" cy="21.2" r="0.4"/>
  </g>
</svg>
