<svg xmlns="http://www.w3.org/2000/svg" viewBox="0 0 60 42" role="img" aria-labelledby="title">
  <title>Bandeira de Pernambuco</title>
  <rect width="60" height="42" rx="4" fill="#ffffff"/>
  <path d="M0 0h60v24H0z" fill="#201b86"/>
  <path d="M5 24c6.5-13.2 15.2-19.8 25-19.8S48.5 10.8 55 24" fill="none" stroke="#ed1c24" stroke-width="2.2"/>
  <path d="M7 24c5.7-11.4 13.5-17 23-17s17.3 5.6 23 17" fill="none" stroke="#ffed00" stroke-width="2.2"/>
  <path d="M9 24c5-9.7 11.9-14.4 21-14.4S46 14.3 51 24" fill="none" stroke="#0f7f1f" stroke-width="2.2"/>
  <circle cx="30" cy="13.8" r="4.2" fill="#ffed00"/>
  <g fill="#ffed00">
    <polygon points="30,2.7 31,5 33.5,5 31.5,6.4 32.3,8.7 30,7.2 27.7,8.7 28.5,6.4 26.5,5 29,5"/>
  </g>
  <g fill="#201b86">
    <circle cx="30" cy="13.8" r="2.35"/>
  </g>
  <g fill="#ffed00">
    <path d="M30 8.4c.9 1.2 1.1 2.4.8 3.8 1-1.1 2-1.5 3.4-1.5-.9 1-1.2 2.1-1.1 3.4.8-.8 1.6-1.1 2.8-1-.8.8-1.1 1.6-1.2 2.8 1-.6 1.9-.7 3-.4-.9.5-1.4 1.2-1.7 2.2 1 .1 1.8.5 2.5 1.3-1 .1-1.8.5-2.5 1.2.9.4 1.5 1 1.9 1.9-.9-.2-1.7-.1-2.5.3.6.7.9 1.5.8 2.4-.7-.6-1.5-.8-2.4-.8.3.8.2 1.7-.2 2.5-.5-.8-1.2-1.3-2.1-1.6-.1 1-.6 1.8-1.4 2.5-.2-1-.7-1.8-1.4-2.5-.3.9-.9 1.6-1.7 2-.1-1-.1-1.8.4-2.6-.9 0-1.7.2-2.4.8 0-.9.2-1.7.8-2.4-.8-.4-1.6-.5-2.5-.3.4-.9 1-1.5 1.9-1.9-.7-.7-1.5-1.1-2.5-1.2.7-.8 1.5-1.2 2.5-1.3-.3-1-.8-1.7-1.7-2.2 1.1-.3 2-.2 3 .4-.1-1.2.2-2 1-2.8 1.1-.1 2 .2 2.9 1 .1-1.3-.2-2.4-1.1-3.4 1.4 0 2.4.4 3.4 1.5-.3-1.4-.1-2.6.8-3.8z"/>
  </g>
  <path d="M30 24v12" stroke="#ed1c24" stroke-width="2.6" stroke-linecap="round"/>
  <path d="M25.4 29.2h9.2" stroke="#ed1c24" stroke-width="2.6" stroke-linecap="round"/>
</svg>
